<svg xmlns="http://www.w3.org/2000/svg" width="41" height="41" fill="none">
  <defs/>
  <g fill="#000" stroke="#000" stroke-width=".5" clip-path="url(#clip0)">
    <path d="M34.24.22H5.88A5.87 5.87 0 000 6.08v28.28a5.87 5.87 0 005.88 5.86h28.36a5.87 5.87 0 005.87-5.86V6.08A5.87 5.87 0 0034.24.22zm3.52 34.14a3.52 3.52 0 01-3.52 3.51H5.88a3.52 3.52 0 01-3.53-3.51V6.08a3.52 3.52 0 013.53-3.52h28.36a3.52 3.52 0 013.52 3.52v28.28z"/>
    <path d="M18.88 16.7a4.7 4.7 0 00-4.7-4.69H7.13v16.41h7.05a4.7 4.7 0 003.1-8.2 4.67 4.67 0 001.6-3.52zm-2.35 7.03c0 1.3-1.05 2.35-2.35 2.35h-4.7v-4.7h4.7c1.3 0 2.35 1.06 2.35 2.35zm-7.05-4.69v-4.68h4.7a2.35 2.35 0 110 4.68h-4.7zM27.1 16.7a5.87 5.87 0 00-5.87 5.86A5.87 5.87 0 0032.2 25.5l-2.04-1.17a3.54 3.54 0 01-6.38-.59h9.2v-1.17a5.87 5.87 0 00-5.87-5.86zm-3.32 4.69a3.53 3.53 0 016.65 0h-6.65zm-1.38-9.38h9.4v2.35h-9.4V12z"/>
  </g>
  <defs>
    <clipPath id="clip0">
      <path fill="#fff" d="M0 0h40.11v40H0z" transform="translate(0 .22)"/>
    </clipPath>
  </defs>
</svg>
