<svg xmlns="http://www.w3.org/2000/svg" width="40" height="40" fill="none">
  <defs/>
  <path fill="#090909" d="M19.55 0C8.78 0 0 8.98 0 20s8.78 20 19.55 20c10.78 0 19.56-8.98 19.56-20S30.33 0 19.55 0zm0 3.08c3.93 0 7.52 1.4 10.35 3.73a19.26 19.26 0 01-8.5 5.96 72.58 72.58 0 00-5.82-9.18 16.4 16.4 0 013.97-.51zM12.6 4.66a73.5 73.5 0 015.83 9.02 53.84 53.84 0 01-14.81 1.78c1.3-4.8 4.62-8.74 8.98-10.8zm19.47 4.28A17.12 17.12 0 0136 21.86c-.55-.07-.95-.14-1.65-.2a38.9 38.9 0 00-8.75.33 73.37 73.37 0 00-2.82-6.47 22.45 22.45 0 009.29-6.58zm-12.21 7.53a75 75 0 012.72 6.13c-3.96 1.2-7.56 3.95-10.32 6.5a50.25 50.25 0 00-3.6 3.64A17.02 17.02 0 013 20c0-.51.04-1 .07-1.48 2.15.08 9 .15 16.79-2.06zm9.95 8.17c2.31-.08 4.14.08 5.58.24A16.82 16.82 0 0128.87 34a59.8 59.8 0 00-2.2-9.07 40.3 40.3 0 013.14-.29zm-6.15.85a54.05 54.05 0 012.4 10.08 16.35 16.35 0 01-14.95-1.01c.84-.92 1.87-2.02 3.15-3.19 2.66-2.44 6.13-4.93 9.4-5.88z"/>
</svg>
