<svg xmlns="http://www.w3.org/2000/svg" width="40" height="40" fill="none">
  <defs/>
  <path fill="#090909" d="M11.36.01C5.1.01 0 5.23 0 11.62v16.79A11.5 11.5 0 0011.36 40h16.41c6.24 0 11.34-5.22 11.34-11.61V11.6C39.1 5.22 34 0 27.76 0h-16.4v.01zm0 3.08h16.4a8.4 8.4 0 018.34 8.53V28.4a8.4 8.4 0 01-8.33 8.53H11.36A8.4 8.4 0 013 28.41V11.63a8.43 8.43 0 018.35-8.54zM31.6 6.16c-.84 0-1.5.68-1.5 1.54s.66 1.54 1.5 1.54c.83 0 1.5-.68 1.5-1.54s-.67-1.54-1.5-1.54zM19.56 9.24A10.68 10.68 0 009.03 20c0 5.93 4.74 10.77 10.53 10.77 5.8 0 10.53-4.84 10.53-10.77 0-5.92-4.74-10.76-10.53-10.76zm0 3.07a7.58 7.58 0 017.52 7.7 7.58 7.58 0 01-7.52 7.68A7.58 7.58 0 0112.04 20a7.58 7.58 0 017.52-7.69z"/>
</svg>
