<svg xmlns="http://www.w3.org/2000/svg" width="167" height="27" fill="none">
  <defs/>
  <path fill="#000" d="M12.09 3.19a1 1 0 011.9 0l1.75 5.37a1 1 0 00.95.7h5.66a1 1 0 01.59 1.8l-4.58 3.32A1 1 0 0018 15.5l1.75 5.36a1 1 0 01-1.54 1.12l-4.59-3.32a1 1 0 00-1.17 0l-4.59 3.32a1 1 0 01-1.53-1.12l1.74-5.36a1 1 0 00-.36-1.12l-4.57-3.32a1 1 0 01.58-1.8h5.66a1 1 0 00.95-.7L12.1 3.2zM47.18 3.19a1 1 0 011.9 0l1.76 5.37a1 1 0 00.95.7h5.66a1 1 0 01.58 1.8l-4.57 3.32a1 1 0 00-.37 1.12l1.75 5.36a1 1 0 01-1.53 1.12l-4.59-3.32a1 1 0 00-1.17 0l-4.59 3.32a1 1 0 01-1.54-1.12l1.75-5.36a1 1 0 00-.36-1.12l-4.58-3.32a1 1 0 01.59-1.8h5.66a1 1 0 00.95-.7l1.75-5.37zM82.28 3.19a1 1 0 011.9 0l1.75 5.37a1 1 0 00.95.7h5.66a1 1 0 01.6 1.8l-4.58 3.32a1 1 0 00-.37 1.12l1.75 5.36a1 1 0 01-1.54 1.12l-4.58-3.32a1 1 0 00-1.18 0l-4.58 3.32a1 1 0 01-1.54-1.12l1.75-5.36a1 1 0 00-.36-1.12l-4.58-3.32a1 1 0 01.59-1.8h5.66a1 1 0 00.95-.7l1.75-5.37z"/>
  <path fill="#E5E5E5" d="M117.38 3.19a1 1 0 011.9 0l1.75 5.37a1 1 0 00.95.7h5.66a1 1 0 01.59 1.8l-4.58 3.32a1 1 0 00-.36 1.12l1.75 5.36a1 1 0 01-1.54 1.12l-4.59-3.32a1 1 0 00-1.17 0l-4.58 3.32a1 1 0 01-1.54-1.12l1.75-5.36a1 1 0 00-.37-1.12l-4.57-3.32a1 1 0 01.58-1.8h5.66a1 1 0 00.96-.7l1.75-5.37zM152.47 3.19a1 1 0 011.9 0l1.76 5.37a1 1 0 00.95.7h5.66a1 1 0 01.58 1.8l-4.57 3.32a1 1 0 00-.36 1.12l1.75 5.36a1 1 0 01-1.54 1.12L154 18.66a1 1 0 00-1.17 0l-4.59 3.32a1 1 0 01-1.53-1.12l1.74-5.36a1 1 0 00-.36-1.12l-4.57-3.32a1 1 0 01.58-1.8h5.66a1 1 0 00.95-.7l1.75-5.37z"/>
</svg>
